<?xml version="1.0" encoding="utf-8"?>
<!-- Generator: Adobe Illustrator 22.0.1, SVG Export Plug-In . SVG Version: 6.00 Build 0)  -->
<svg version="1.1" xmlns="http://www.w3.org/2000/svg" xmlns:xlink="http://www.w3.org/1999/xlink" x="0px" y="0px"
	 viewBox="0 0 586.3 172.4" style="enable-background:new 0 0 586.3 172.4;" xml:space="preserve">
<style type="text/css">
	.st0{display:none;}
	.st1{display:inline;fill:#7E1416;}
	.st2{fill:#FFFFFF;}
</style>
<g id="Layer_2" class="st0">
	<rect x="-0.3" y="-0.2" class="st1" width="586.6" height="172.6"/>
</g>
<g id="Layer_1">
	<g>
		<path class="st2" d="M223.5,130.4l8.9-42.2H243V160h-9.6l1-47l-7.2,34h-7.4l-7.2-34l1,47H204V88.2h10.6L223.5,130.4z"/>
		<path class="st2" d="M252,160V88.2h21.2v8h-11.6v24.5h11.6v8h-11.6V152h11.6v8H252z"/>
		<path class="st2" d="M301.4,160l-6.3-29h-5.8v29h-9.6V88.2h18.8c7.3,0,11,4.1,11,12.3v17.7c0,6.3-1.9,10.2-5.7,11.9l6.7,29.9
			H301.4z M289.3,122.8h6.3c2.9,0,4.3-1.7,4.3-5.2v-15.5c0-3.5-1.4-5.2-4.3-5.2h-6.3V122.8z"/>
		<path class="st2" d="M347.2,141.2v6.6c0,8.1-3.8,12.2-11.5,12.2h-6.2c-7.7,0-11.5-4.1-11.5-12.2v-47.4c0-8.1,3.8-12.2,11.5-12.2
			h6.2c7.7,0,11.5,4.1,11.5,12.2v10.1h-9.6v-10.1c0-2.8-1.4-4.2-4.3-4.2h-1.9c-2.5,0-3.8,1.4-3.8,4.2v47.4c0,2.8,1.3,4.2,3.8,4.2
			h2.4c2.5,0,3.8-1.4,3.8-4.2v-6.6H347.2z"/>
		<path class="st2" d="M368.2,119.4l6.5-31.2h9.5l-11.6,45.4V160H363v-26.4l-11.8-45.4h9.5l7.2,31.2H368.2z"/>
	</g>
	<g id="wing_x5F_r_2_">
		<path class="st2" d="M416.1,120.5c0,0-2.7-8.4,0-13.3c2.7-4.9,34.3-40,46.9-44c0,0-1.5,5.1-3.8,10.8c-2.2,5.7-20.6,41.3-27.2,46.4
			c0,0-2.4-0.9-2.4,2.7c0,3.5,2.7,16.1-3.3,17.2c0,0-5.4,0.7-6.9,0c-1.5-0.7-0.2,1.7,0.5,2s2.2,1.7,4.4,1.7c2.2,0,2.9,1.5,3.3,3.3
			c0.4,1.8,4.4,10.4,6,11.3c1.5,0.9,2,6-3.1,4c-5.1-2-20.6-14.4-21.7-20.1c-1.1-5.7-2.9-10.4,3.1-22.3
			C411.9,120.3,413.7,118.3,416.1,120.5z"/>
		<path class="st2" d="M443.8,106.6c0,0,16.1-24.3,21-34.7c0,0,81.8-47.3,109.7-64.8c0,0,4.2-1.5,2.2,2.2c-2,3.8-18.4,28.7-96,83.6
			c0,0-2.2,1.3-5.3-0.7c0,0-1.5-0.8-3.4,0.6C470.1,94.1,458.5,105.3,443.8,106.6z"/>
		<path class="st2" d="M434.6,120.8c0.7-0.9,6.3-9.4,7.4-12c0,0,33.4-10.3,47.3-15.3s33.2-10.7,37.1-12c4-1.3,1.7,3.2,1.7,3.2
			s-22.4,18.6-68.5,38.5c0,0-3.1-0.1-4.8-1.2c-1.7-1.1-9.9,2.5-9.5,3.5c0.4,1,7.4,0.6,7.4,0.6s45.8-0.9,50.6-1.5s-2,3.1-2,3.1
			s-29.8,11.3-55.1,12.8c0,0-2.2,0-3-1.4c-0.8-1.4-5-0.2-5-0.2l-3,0.8c0,0-0.9,0.6,1.3,0.9c2.2,0.3,8.3,0.9,12.7,2.5
			s26.8,3.8,31,5.3c4.2,1.5,6.4,3.4,1.3,3.4c-5.1,0-34.7,0.8-48.3-0.7c0,0-6.3-3.6-2.7-9.4c0,0,1.1-0.8,2.5-4.9
			C434.7,132.7,433.8,121.9,434.6,120.8z"/>
	</g>
	<g id="wing_x5F_l_2_">
		<path class="st2" d="M160.8,120.5c0,0,2.7-8.4,0-13.3c-2.7-4.9-34.3-40-46.9-44c0,0,1.5,5.1,3.8,10.8c2.2,5.7,20.6,41.3,27.2,46.4
			c0,0,2.4-0.9,2.4,2.7c0,3.5-2.7,16.1,3.3,17.2c0,0,5.4,0.7,6.9,0c1.5-0.7,0.2,1.7-0.5,2s-2.2,1.7-4.4,1.7c-2.2,0-2.9,1.5-3.3,3.3
			c-0.4,1.8-4.4,10.4-6,11.3s-2,6,3.1,4c5.1-2,20.6-14.4,21.7-20.1c1.1-5.7,2.9-10.4-3.1-22.3C165,120.3,163.2,118.3,160.8,120.5z"
			/>
		<path class="st2" d="M133.1,106.6c0,0-16.1-24.3-21-34.7c0,0-81.8-47.3-109.7-64.8c0,0-4.2-1.5-2.2,2.2s18.4,28.7,96,83.6
			c0,0,2.2,1.3,5.3-0.7c0,0,1.5-0.8,3.4,0.6C106.8,94.1,118.4,105.3,133.1,106.6z"/>
		<path class="st2" d="M142.3,120.8c-0.7-0.9-6.3-9.4-7.4-12c0,0-33.4-10.3-47.3-15.3s-33.2-10.7-37.1-12c-4-1.3-1.7,3.2-1.7,3.2
			s22.4,18.6,68.5,38.5c0,0,3.1-0.1,4.8-1.2c1.7-1.1,9.9,2.5,9.5,3.5c-0.4,1-7.4,0.6-7.4,0.6s-45.8-0.9-50.6-1.5s2,3.1,2,3.1
			s29.8,11.3,55.1,12.8c0,0,2.2,0,3-1.4s5-0.2,5-0.2l3,0.8c0,0,0.9,0.6-1.3,0.9c-2.2,0.3-8.3,0.9-12.7,2.5s-26.8,3.8-31,5.3
			c-4.2,1.5-6.4,3.4-1.3,3.4c5.1,0,34.7,0.8,48.3-0.7c0,0,6.3-3.6,2.7-9.4c0,0-1.1-0.8-2.5-4.9C142.2,132.7,143.1,121.9,142.3,120.8
			z"/>
	</g>
</g>
</svg>
